<svg width="17" height="12" viewBox="0 0 17 12" fill="none" xmlns="http://www.w3.org/2000/svg">
<path d="M16.736 9.57789L13.7394 7.97476C13.5886 7.90511 13.419 7.90511 13.2682 7.97476C13.1174 8.04441 13.0232 8.20133 13.0232 8.35812V9.52561H11.3081C10.328 9.52561 9.44223 9.02034 9.00878 8.20132L6.91679 4.35034C6.31362 3.23513 5.10742 2.55554 3.76937 2.55554H0.471171C0.207322 2.55554 0 2.74723 0 2.99117C0 3.23512 0.207322 3.4268 0.471171 3.4268H3.76937C4.74943 3.4268 5.63523 3.93207 6.06868 4.75109L8.16068 8.60207C8.76384 9.71729 9.97004 10.3969 11.3081 10.3969H13.0232V11.5644C13.0232 11.7212 13.1175 11.8606 13.2682 11.9477C13.3436 11.9826 13.419 12 13.5133 12C13.6076 12 13.6829 11.9826 13.7583 11.9477L16.755 10.3446C16.9057 10.2749 17 10.118 17 9.96124C16.9999 9.80444 16.8679 9.66503 16.736 9.57789H16.736ZM13.9655 10.8151V9.12489L15.5486 9.97876L13.9655 10.8151Z" fill="#393939"/>
<path d="M16.7475 2.20032L13.8815 0.715023C13.7373 0.650494 13.5751 0.650494 13.4308 0.715023C13.2866 0.779552 13.1965 0.924936 13.1965 1.0702V2.15188H11.5561C10.2943 2.15188 9.14068 2.78152 8.56379 3.78245L8.54581 3.81477C8.43768 4.00847 8.52783 4.26681 8.7441 4.36365C8.81615 4.39597 8.87034 4.41208 8.94239 4.41208C9.10459 4.41208 9.26679 4.33133 9.33896 4.18606L9.35694 4.16996C9.7715 3.42725 10.6187 2.95912 11.5561 2.95912H13.1964V4.0408C13.1964 4.18607 13.2866 4.31524 13.4308 4.39598C13.5029 4.4283 13.575 4.4444 13.6652 4.4444C13.7554 4.4444 13.8274 4.4283 13.8996 4.39598L16.7656 2.91069C16.9098 2.84616 17 2.70077 17 2.55551C16.9999 2.41023 16.8736 2.28106 16.7475 2.20033L16.7475 2.20032ZM14.0978 3.34663V1.78062L15.6119 2.57173L14.0978 3.34663Z" fill="#393939"/>
<path d="M0.448438 11.0556H3.58769C4.86139 11.0556 5.99142 10.258 6.56552 8.96951C6.67313 8.72414 6.58341 8.41729 6.36819 8.2742C6.15297 8.15152 5.88382 8.25381 5.75831 8.49917C5.34576 9.44 4.50264 10.033 3.56981 10.033H0.448464C0.197331 10.033 0 10.258 0 10.5443C0 10.8306 0.197331 11.0556 0.448464 11.0556L0.448438 11.0556Z" fill="#393939"/>
</svg>
